<?xml version="1.0" encoding="utf-8"?>
<!-- Generator: Adobe Illustrator 17.0.0, SVG Export Plug-In . SVG Version: 6.00 Build 0)  -->
<!DOCTYPE svg PUBLIC "-//W3C//DTD SVG 1.1//EN" "http://www.w3.org/Graphics/SVG/1.1/DTD/svg11.dtd">
<svg version="1.1" id="Layer_1" xmlns="http://www.w3.org/2000/svg" xmlns:xlink="http://www.w3.org/1999/xlink" x="0px" y="0px"
	 width="1200px" height="800px" viewBox="0 0 1200 800" enable-background="new 0 0 1200 800" xml:space="preserve">
<g>
	<rect fill="#EEEEEE" width="1200" height="800"/>
	<g>
		<g>
			<circle fill="#4BBCEC" cx="345.857" cy="520.221" r="4.832"/>
			<path fill="#4BBCEC" d="M265.088,563.713c0,0,5.523,15.187-16.568,15.878c-22.091,0.69-19.329-15.878-19.329-15.878
				s-13.807-9.665-9.665-19.329c4.142-9.665,13.807-10.355,17.258-8.974c0,0,8.974-14.497,19.329-10.355
				c10.355,4.142,9.588,17.949,9.588,17.949s9.051,0.657,9.051,8.958S271.301,564.403,265.088,563.713z"/>
		</g>
		<path fill="#4BBCEC" d="M1166.098,660.359c-15.954,13.116,0,45.562,0,45.562c-3.528,1.381-10.969,13.116-10.969,13.116
			c-4.142-17.949-27.613-11.736-27.613-11.736s-8.284-11.045-19.329-12.426c-11.045-1.381-30.375,8.974-30.375,8.974
			s-11.736-14.497-40.73-2.761s-45.562,44.181-45.562,44.181c-5.523-2.071-8.284,5.523-8.284,5.523
			c-7.594-12.426-35.207-11.045-35.207-11.045c-0.69-31.755-24.162-24.852-24.162-24.852c0.69-21.4-15.878-33.826-15.878-33.826
			c35.987-31.153,14.722-47.259,3.509-52.875c5.181-0.327,10.297-5.804,10.297-5.804c2.071,0.69,11.045,4.142,17.949-8.284
			c6.903-12.426-4.832-15.878-4.832-15.878c2.071-15.187-13.116-11.045-13.116-11.045l-4.832-2.761
			c-15.878-6.213-18.639,24.162-18.639,24.162c-13.807-5.523-17.949,4.832-17.949,4.832s-23.471-5.523-34.517,8.284
			c-11.045,13.807,0.69,33.826,0.69,33.826c-10.355,10.355,4.142,32.446,4.142,32.446c-13.116,4.832-11.045,25.542-11.045,25.542
			c-12.426-3.452-22.781,6.903-22.781,6.903c-11.736-3.452-24.162,14.497-24.162,14.497c-5.523-8.284-14.497-7.594-14.497-7.594
			s-2.071-30.375-31.755-43.491c-29.684-13.116-49.704,17.874-49.704,17.874c-9.665-2.836-35.897,6.288-35.897,6.288
			s0-20.02-20.71-17.949c-5.629,0.563-9.616,2.559-12.452,5.16c-0.477-19.597-3.847-35.982-12.599-42.438
			c0,0-17.949-5.523-33.902,7.594c-15.954,13.116,0,45.562,0,45.562c-3.528,1.381-10.969,13.116-10.969,13.116
			c-4.142-17.949-27.613-11.736-27.613-11.736s-8.284-11.045-19.329-12.426c-11.045-1.381-30.375,8.974-30.375,8.974
			s-11.736-14.497-40.73-2.761s-45.562,44.181-45.562,44.181c-5.523-2.071-8.284,5.523-8.284,5.523
			c-7.594-12.426-35.207-11.045-35.207-11.045c-0.69-31.755-24.162-24.852-24.162-24.852c0.69-21.4-15.878-33.826-15.878-33.826
			c35.987-31.153,14.722-47.259,3.509-52.875c5.181-0.327,10.297-5.804,10.297-5.804c2.071,0.69,11.045,4.142,17.949-8.284
			c6.903-12.426-4.832-15.878-4.832-15.878c2.071-15.187-13.116-11.045-13.116-11.045l-4.832-2.761
			c-15.878-6.213-18.639,24.162-18.639,24.162c-13.807-5.523-17.949,4.832-17.949,4.832s-23.471-5.523-34.517,8.284
			c-11.045,13.807,0.69,33.826,0.69,33.826c-10.355,10.355,4.142,32.446,4.142,32.446c-13.116,4.832-11.045,25.542-11.045,25.542
			c-12.426-3.452-22.781,6.903-22.781,6.903c-11.736-3.452-24.162,14.497-24.162,14.497c-5.523-8.284-14.497-7.594-14.497-7.594
			s-2.071-30.375-31.755-43.491s-49.704,17.874-49.704,17.874c-9.665-2.836-35.897,6.288-35.897,6.288s0-20.02-20.71-17.949
			s-19.329,23.471-19.329,23.471c-8.284-13.116-29.684-8.974-29.684-8.974C12.426,691.424,0,690.044,0,690.044V800h584.912h30.175
			H1200V652.766C1200,652.766,1182.051,647.243,1166.098,660.359z"/>
	</g>
	<g display="none">
		<g display="inline">
			<path fill="#C2C3C4" d="M652.422,577.828c24.232-0.884,27.123-18.082,27.123-18.082l-17.904,106.489l-35.523-99.159
				C626.118,567.076,628.19,578.712,652.422,577.828z"/>
			<path fill="#4BBCEC" d="M552.97,456.817c0,0-30.6,59.81-29.209,102.929c0,0,47.292-38.946,70.937-37.555
				C594.698,522.191,562.707,481.854,552.97,456.817z"/>
			<g>
				<defs>
					<path id="SVGID_1_" d="M625.298,540.273c0,0-87.628-72.328-93.192-265.667C526.543,81.267,612.78,18.675,612.78,18.675
						s73.719,68.155,84.847,125.183h-82.889l82.889,15.3c0,0,72.328,161.348-9.736,349.123l-44.51,8.346l36.164,2.782
						l-13.986,20.864H625.298z"/>
				</defs>
				<clipPath id="SVGID_2_">
					<use xlink:href="#SVGID_1_"  overflow="visible"/>
				</clipPath>
				<path clip-path="url(#SVGID_2_)" fill="#4BBCEC" d="M625.298,540.273c0,0-87.628-72.328-93.192-265.667
					C526.543,81.267,612.78,18.675,612.78,18.675s73.719,68.155,84.847,125.183h-82.889l82.889,15.3
					c0,0,72.328,161.348-9.736,349.123l-44.51,8.346l36.164,2.782l-13.986,20.864H625.298z"/>
				<path clip-path="url(#SVGID_2_)" fill="#31A6DA" d="M600.56,30.196c0,0,101.236,85.348,102.63,259.71
					S641.99,550.009,641.99,550.009h54.246c0,0,125.183-315.741,0-470.134L614.171,7.548L600.56,30.196z"/>
			</g>
			<g>
				<defs>
					<path id="SVGID_3_" d="M694.845,512.454c0,0,29.679-44.51,30.835-75.11c0,0,34.538,43.119,44.275,107.101
						C769.955,544.446,732.4,516.627,694.845,512.454z"/>
				</defs>
				<clipPath id="SVGID_4_">
					<use xlink:href="#SVGID_3_"  overflow="visible"/>
				</clipPath>
				<path clip-path="url(#SVGID_4_)" fill="#4BBCEC" d="M694.845,512.454c0,0,29.679-44.51,30.835-75.11
					c0,0,34.538,43.119,44.275,107.101C769.955,544.446,732.4,516.627,694.845,512.454z"/>
				<path clip-path="url(#SVGID_4_)" fill="#31A6DA" d="M746.309,422.044c0,0-34.773,93.192-47.292,109.883
					c-12.518,16.691-19.473-8.346-19.473-8.346l40.672-122.583L746.309,422.044z"/>
			</g>
		</g>
		<circle display="inline" fill="#EEEEEE" cx="624.731" cy="241.27" r="59.459"/>
	</g>
</g>
<g>
	<g>
		<g>
			<rect x="612.571" y="31.818" fill="#4BBCEC" width="2.655" height="76.699"/>
			<path fill="#C2C3C4" d="M645.966,615.489c23.466-0.856,26.266-17.51,26.266-17.51l-17.338,103.122l-34.401-96.024
				C620.494,605.077,622.501,616.346,645.966,615.489z"/>
			<path fill="#4BBCEC" d="M557.526,517.161c0,0-29.633,57.919-28.286,99.675c0,0,45.797-37.715,68.695-36.368
				C597.935,580.469,566.955,541.407,557.526,517.161z"/>
			<path fill="#4BBCEC" d="M534.54,258.171c0,0-109.543,66.693-150.373,138.212c0,0,115.838-16.079,152.905,9.815
				C537.072,406.198,525.354,308.622,534.54,258.171z"/>
			<g>
				<defs>
					<path id="SVGID_5_" d="M627.568,597.979c0,0-84.858-70.042-90.246-257.269c-5.388-187.227,78.124-247.84,78.124-247.84
						s71.389,66.001,82.164,121.226h-80.269l80.269,14.817c0,0,70.042,156.247-9.429,338.086l-43.103,8.082l35.021,2.694
						l-13.544,20.204H627.568z"/>
				</defs>
				<clipPath id="SVGID_6_">
					<use xlink:href="#SVGID_5_"  overflow="visible"/>
				</clipPath>
				<path clip-path="url(#SVGID_6_)" fill="#4BBCEC" d="M627.568,597.979c0,0-84.858-70.042-90.246-257.269
					c-5.388-187.227,78.124-247.84,78.124-247.84s71.389,66.001,82.164,121.226h-80.269l80.269,14.817
					c0,0,70.042,156.247-9.429,338.086l-43.103,8.082l35.021,2.694l-13.544,20.204H627.568z"/>
				<path clip-path="url(#SVGID_6_)" fill="#31A6DA" d="M603.612,104.027c0,0,98.036,82.65,99.386,251.5
					s-59.266,251.881-59.266,251.881h52.531c0,0,121.226-305.759,0-455.272l-79.47-70.042L603.612,104.027z"/>
			</g>
			<g>
				<defs>
					<path id="SVGID_7_" d="M694.916,571.04c0,0,28.741-43.103,29.86-72.736c0,0,33.447,41.756,42.875,103.716
						C767.652,602.02,731.284,575.081,694.916,571.04z"/>
				</defs>
				<clipPath id="SVGID_8_">
					<use xlink:href="#SVGID_7_"  overflow="visible"/>
				</clipPath>
				<path clip-path="url(#SVGID_8_)" fill="#4BBCEC" d="M694.916,571.04c0,0,28.741-43.103,29.86-72.736
					c0,0,33.447,41.756,42.875,103.716C767.652,602.02,731.284,575.081,694.916,571.04z"/>
				<path clip-path="url(#SVGID_8_)" fill="#31A6DA" d="M744.753,483.488c0,0-33.674,90.246-45.797,106.41
					c-12.123,16.163-18.857-8.082-18.857-8.082l39.386-118.708L744.753,483.488z"/>
			</g>
			<g>
				<defs>
					<path id="SVGID_9_" d="M728.604,413.894c0,0,8.688-102.912-17.879-155.723c0,0,98.582,40.704,174.68,139.798
						C885.404,397.97,795.984,385.944,728.604,413.894z"/>
				</defs>
				<clipPath id="SVGID_10_">
					<use xlink:href="#SVGID_9_"  overflow="visible"/>
				</clipPath>
				<path clip-path="url(#SVGID_10_)" fill="#4BBCEC" d="M728.604,413.894c0,0,8.688-102.912-17.879-155.723
					c0,0,98.582,40.704,174.68,139.798C885.404,397.97,795.984,385.944,728.604,413.894z"/>
				<path clip-path="url(#SVGID_10_)" fill="#31A6DA" d="M731.34,213.076c0,0,28.075,189.963,22.469,229.85s-40.7,4.041-40.7,4.041
					l-45.498-245.15L731.34,213.076z"/>
			</g>
		</g>
		<circle fill="#EEEEEE" cx="627.018" cy="308.428" r="57.58"/>
		<circle fill="#EEEEEE" cx="635.975" cy="423.93" r="35.018"/>
		<circle fill="#EEEEEE" cx="644.394" cy="504.132" r="22.559"/>
	</g>
	<circle fill="#4BBCEC" cx="614.328" cy="26.879" r="7.633"/>
	<g>
		<path fill="#00AEEF" d="M613.899,62.349c-13.078,0-26.977-2.675-26.977-7.633s13.899-7.632,26.977-7.632
			c13.078,0,26.976,2.674,26.976,7.632S626.977,62.349,613.899,62.349z M613.899,48.431c-15.105,0-25.63,3.312-25.63,6.285
			c0,2.973,10.525,6.286,25.63,6.286c15.103,0,25.629-3.313,25.629-6.286C639.528,51.743,629.002,48.431,613.899,48.431z"/>
	</g>
	<g>
		<path fill="#00AEEF" d="M614.328,87.924c-15.928,0-32.856-3.258-32.856-9.297c0-6.038,16.928-9.296,32.856-9.296
			s32.856,3.258,32.856,9.296C647.183,84.666,630.256,87.924,614.328,87.924z M614.328,70.973c-18.396,0-31.215,4.033-31.215,7.654
			c0,3.621,12.82,7.656,31.215,7.656s31.214-4.034,31.214-7.656C645.542,75.006,632.723,70.973,614.328,70.973z"/>
	</g>
</g>
</svg>
